<svg xmlns="http://www.w3.org/2000/svg" xmlns:xlink="http://www.w3.org/1999/xlink" version="1.0" id="&#1057;&#1083;&#1086;&#1081;_1" x="0px" y="0px" viewBox="5.0 -10.0 100.0 135.0" enable-background="new 0 0 100 100" xml:space="preserve" height="100px" width="100px">
<path d="M94.5,43.6H90V29.4C83.2,16.3,70.3,7,55,5.3v6.1H45V5.3C29.7,7,16.8,16.3,10,29.4v14.2H5.5v0H5v12.9h0.5c0,0,0,0,0,0H10  v14.2C16.8,83.7,29.7,93,45,94.7v-6.1h10v6.1c15.3-1.7,28.2-11,35-24.1V56.4h4.5c0,0,0,0,0,0H95V43.6L94.5,43.6L94.5,43.6z   M30.7,56.4c-3.6,0-6.4-2.9-6.4-6.4s2.9-6.4,6.4-6.4s6.4,2.9,6.4,6.4S34.3,56.4,30.7,56.4z M69.3,56.4c-3.6,0-6.4-2.9-6.4-6.4  s2.9-6.4,6.4-6.4s6.4,2.9,6.4,6.4S72.8,56.4,69.3,56.4z"/>
<text x="0.0" y="117.5" font-size="5.0" font-weight="bold" font-family="Helvetica Neue, Helvetica, Arial-Unicode, Arial, Sans-serif" fill="#000000">Created by Arthur Shlain</text><text x="0.0" y="122.5" font-size="5.0" font-weight="bold" font-family="Helvetica Neue, Helvetica, Arial-Unicode, Arial, Sans-serif" fill="#000000">from the Noun Project</text></svg>