<svg xmlns="http://www.w3.org/2000/svg" xmlns:xlink="http://www.w3.org/1999/xlink" version="1.1" x="0px" y="0px" viewBox="5.0 -10.0 100.0 135.0" enable-background="new 0 0 100 100" xml:space="preserve" height="100px" width="100px">
<g id="Guides">
</g>
<g id="Artwork">
	<path d="M77,95H23c-3.9,0-7-3.1-7-7V12c0-3.9,3.1-7,7-7h54c3.9,0,7,3.1,7,7v76C84,91.9,80.9,95,77,95z M23,9c-1.7,0-3,1.3-3,3v76   c0,1.7,1.3,3,3,3h54c1.7,0,3-1.3,3-3V12c0-1.7-1.3-3-3-3H23z M50,85c-1.1,0-2,0.9-2,2s0.9,2,2,2s2-0.9,2-2S51.1,85,50,85z M76,83   H24c-1.1,0-2-0.9-2-2V13c0-1.1,0.9-2,2-2h52c1.1,0,2,0.9,2,2v68C78,82.1,77.1,83,76,83z M26,79h48V15H26V79z"/>
</g>
<g id="Layer_3">
</g>
<text x="0.0" y="117.5" font-size="5.0" font-weight="bold" font-family="Helvetica Neue, Helvetica, Arial-Unicode, Arial, Sans-serif" fill="#000000">Created by Joel Avery</text><text x="0.0" y="122.5" font-size="5.0" font-weight="bold" font-family="Helvetica Neue, Helvetica, Arial-Unicode, Arial, Sans-serif" fill="#000000">from the Noun Project</text></svg>